<svg xmlns="http://www.w3.org/2000/svg" xmlns:xlink="http://www.w3.org/1999/xlink" width="1366" height="768" viewBox="0 0 1366 768"><defs><style>.a{fill:#fff;}.b{clip-path:url(#a);}.c,.d,.g{fill:none;}.d{stroke:#0375b5;stroke-width:10px;}.e,.f{stroke:none;}.f{fill:#0375b5;}</style><clipPath id="a"><rect class="a" width="1366" height="768"/></clipPath></defs><g class="b"><g class="c" transform="matrix(0.996, -0.087, 0.087, 0.996, 580.51, 305.838)"><path class="e" d="M42.211,0,84.422,73.963H0Z"/><path class="f" d="M 42.21084213256836 20.17507553100586 L 17.22088623046875 63.96342849731445 L 67.20079040527344 63.96342849731445 L 42.21084213256836 20.17507553100586 M 42.21084213256836 -7.62939453125e-06 L 84.42167663574219 73.96342468261719 L 7.62939453125e-06 73.96342468261719 L 42.21084213256836 -7.62939453125e-06 Z"/></g><g class="d" transform="translate(-39 -25)"><circle class="e" cx="104" cy="104" r="104"/><circle class="g" cx="104" cy="104" r="99"/></g><g class="d" transform="translate(143 482)"><circle class="e" cx="19" cy="19" r="19"/><circle class="g" cx="19" cy="19" r="14"/></g><g class="d" transform="translate(162 262)"><circle class="e" cx="19" cy="19" r="19"/><circle class="g" cx="19" cy="19" r="14"/></g><g class="d" transform="translate(484 161)"><circle class="e" cx="39" cy="39" r="39"/><circle class="g" cx="39" cy="39" r="34"/></g><g class="d" transform="translate(432 -13)"><circle class="e" cx="33.5" cy="33.5" r="33.5"/><circle class="g" cx="33.5" cy="33.5" r="28.5"/></g><g class="c" transform="matrix(0.259, -0.966, 0.966, 0.259, 364.052, 418.701)"><path class="e" d="M30.5,0,61,54H0Z"/><path class="f" d="M 30.50000190734863 20.33380508422852 L 17.13298416137695 44 L 43.86701965332031 44 L 30.50000190734863 20.33380508422852 M 30.50000190734863 0 L 61 54 L 3.814697265625e-06 54 L 30.50000190734863 0 Z"/></g><g transform="translate(-602.49 285)"><g class="d" transform="translate(1196.022 235)"><ellipse class="e" cx="104" cy="104" rx="104" ry="104"/><ellipse class="g" cx="104" cy="104" rx="99" ry="99"/></g><g class="d" transform="translate(1165.022 522)"><ellipse class="e" cx="19" cy="19" rx="19" ry="19"/><ellipse class="g" cx="19" cy="19" rx="14" ry="14"/></g><g class="d" transform="translate(803.022 421)"><ellipse class="e" cx="39" cy="39" rx="39" ry="39"/><ellipse class="g" cx="39" cy="39" rx="34" ry="34"/></g><g class="d" transform="translate(866.022 247)"><ellipse class="e" cx="33.5" cy="33.5" rx="33.5" ry="33.5"/><ellipse class="g" cx="33.5" cy="33.5" rx="28.5" ry="28.5"/></g><g class="c" transform="matrix(0.259, 0.966, -0.966, 0.259, 985.182, 619.78)"><path class="e" d="M30.5,0,61,54H0Z"/><path class="f" d="M 30.50000190734863 20.33380126953125 L 17.13298416137695 43.99999618530273 L 43.86701965332031 43.99999618530273 L 30.50000190734863 20.33380126953125 M 30.50000190734863 -3.814697265625e-06 L 61 53.99999618530273 L 3.814697265625e-06 53.99999618530273 L 30.50000190734863 -3.814697265625e-06 Z"/></g><g class="d" transform="translate(637.022 620)"><ellipse class="e" cx="97.5" cy="97.5" rx="97.5" ry="97.5"/><ellipse class="g" cx="97.5" cy="97.5" rx="92.5" ry="92.5"/></g><g class="c" transform="matrix(0.966, -0.259, 0.259, 0.966, 1295.532, 649.879)"><path class="e" d="M58.148,0,116.3,102.951H0Z"/><path class="f" d="M 58.14838790893555 20.33382415771484 L 17.13298034667969 92.95125579833984 L 99.16377258300781 92.95125579833984 L 58.14838790893555 20.33382415771484 M 58.14838790893555 0 L 116.296760559082 102.9512557983398 L -1.52587890625e-05 102.9512557983398 L 58.14838790893555 0 Z"/></g><g class="d" transform="translate(1184.022 742)"><ellipse class="e" cx="19" cy="19" rx="19" ry="19"/><ellipse class="g" cx="19" cy="19" rx="14" ry="14"/></g><g class="d" transform="translate(533 360)"><circle class="e" cx="97.5" cy="97.5" r="97.5"/><circle class="g" cx="97.5" cy="97.5" r="92.5"/></g></g><g transform="translate(1128.878 -689.907) rotate(60)"><g class="d" transform="translate(1196.022 235)"><ellipse class="e" cx="104" cy="104" rx="104" ry="104"/><ellipse class="g" cx="104" cy="104" rx="99" ry="99"/></g><g class="d" transform="translate(1165.022 522)"><ellipse class="e" cx="19" cy="19" rx="19" ry="19"/><ellipse class="g" cx="19" cy="19" rx="14" ry="14"/></g><g class="d" transform="translate(803.022 421)"><ellipse class="e" cx="39" cy="39" rx="39" ry="39"/><ellipse class="g" cx="39" cy="39" rx="34" ry="34"/></g><g class="d" transform="translate(866.022 247)"><ellipse class="e" cx="33.5" cy="33.5" rx="33.5" ry="33.5"/><ellipse class="g" cx="33.5" cy="33.5" rx="28.5" ry="28.5"/></g><g class="c" transform="matrix(0.259, 0.966, -0.966, 0.259, 985.182, 619.78)"><path class="e" d="M30.5,0,61,54H0Z"/><path class="f" d="M 30.50000190734863 20.33380126953125 L 17.13298416137695 43.99999618530273 L 43.86701965332031 43.99999618530273 L 30.50000190734863 20.33380126953125 M 30.50000190734863 -3.814697265625e-06 L 61 53.99999618530273 L 3.814697265625e-06 53.99999618530273 L 30.50000190734863 -3.814697265625e-06 Z"/></g><g class="d" transform="translate(637.022 620)"><ellipse class="e" cx="97.5" cy="97.5" rx="97.5" ry="97.5"/><ellipse class="g" cx="97.5" cy="97.5" rx="92.5" ry="92.5"/></g><g class="c" transform="matrix(0.966, -0.259, 0.259, 0.966, 1295.532, 649.879)"><path class="e" d="M58.148,0,116.3,102.951H0Z"/><path class="f" d="M 58.14838790893555 20.33382415771484 L 17.13298034667969 92.95125579833984 L 99.16377258300781 92.95125579833984 L 58.14838790893555 20.33382415771484 M 58.14838790893555 0 L 116.296760559082 102.9512557983398 L -1.52587890625e-05 102.9512557983398 L 58.14838790893555 0 Z"/></g><g class="d" transform="translate(1184.022 742)"><ellipse class="e" cx="19" cy="19" rx="19" ry="19"/><ellipse class="g" cx="19" cy="19" rx="14" ry="14"/></g><g class="d" transform="translate(533 360)"><circle class="e" cx="97.5" cy="97.5" r="97.5"/><circle class="g" cx="97.5" cy="97.5" r="92.5"/></g></g><g class="c" transform="translate(700.412 38.48) rotate(5)"><path class="e" d="M42.211,0,84.422,73.963H0Z"/><path class="f" d="M 42.21084594726563 20.17506790161133 L 17.22087860107422 63.96342849731445 L 67.20081329345703 63.96342849731445 L 42.21084594726563 20.17506790161133 M 42.21084594726563 -7.62939453125e-06 L 84.42169952392578 73.96342468261719 L -7.62939453125e-06 73.96342468261719 L 42.21084594726563 -7.62939453125e-06 Z"/></g><g class="c" transform="matrix(0.966, 0.259, -0.259, 0.966, -42.844, 359.78)"><path class="e" d="M58.148,0,116.3,102.951H0Z"/><path class="f" d="M 58.14839172363281 20.33381652832031 L 17.13298034667969 92.95125579833984 L 99.16380310058594 92.95125579833984 L 58.14839172363281 20.33381652832031 M 58.14839172363281 0 L 116.2967910766602 102.9512557983398 L -7.62939453125e-06 102.9512557983398 L 58.14839172363281 0 Z"/></g></g></svg>