<svg xmlns="http://www.w3.org/2000/svg" width="139.639" height="117.82" viewBox="0 0 139.639 117.82"><defs><style>.a{fill:#0eaae0;}.b{fill:#f9fceb;}.c{fill:#fcaa24;}.d{fill:#3a3a3a;}</style></defs><g transform="translate(0 0)"><path class="a" d="M195.067,118.906l16.025,13.1v63.939a5.623,5.623,0,0,1-5.623,5.623H107.622A5.623,5.623,0,0,1,102,195.946V132.008l16.026-13.1Zm0,0" transform="translate(-74.181 -86.477)"/><path class="b" d="M160.762,65.473V15.624A5.623,5.623,0,0,1,166.386,10h65.792a5.623,5.623,0,0,1,5.624,5.623V65.473l-38.52,29.065Zm0,0" transform="translate(-116.917 -7.274)"/><path class="c" d="M269.668,93.259a19.4,19.4,0,1,1-19.4-19.4A19.4,19.4,0,0,1,269.668,93.259Zm0,0" transform="translate(-167.903 -53.716)"/><path class="d" d="M165.546,43.419,150.521,31.136V8.35A8.36,8.36,0,0,0,142.17,0H120.183a2.727,2.727,0,0,0,0,5.455H142.17a2.9,2.9,0,0,1,2.9,2.9V56.758L109.274,83.971,73.481,56.758V8.35a2.9,2.9,0,0,1,2.9-2.9H98.365a2.727,2.727,0,0,0,0-5.455H76.378a8.36,8.36,0,0,0-8.351,8.35V31.136L53,43.419a2.727,2.727,0,0,0-1,2.112V75.809H39.728a2.727,2.727,0,1,0,0,5.455H52v28.205a8.36,8.36,0,0,0,8.35,8.35H158.2a8.36,8.36,0,0,0,8.35-8.35V45.531a2.727,2.727,0,0,0-1-2.112Zm-4.453,64.81-32.27-32.27,32.27-24.534ZM150.521,38.181l9.145,7.477-9.145,6.953ZM109.274,90.125a2.725,2.725,0,0,0,1.651-.556l13.516-10.276,33.073,33.073H61.034L94.107,79.292l13.517,10.276a2.72,2.72,0,0,0,1.65.556Zm-51.819-38.7,32.27,24.534-32.27,32.27ZM68.027,52.61l-9.145-6.953,9.145-7.477Zm0,0" transform="translate(-26.909 0)"/><path class="d" d="M17.455,341.965H2.727a2.727,2.727,0,1,0,0,5.455H17.455a2.727,2.727,0,1,0,0-5.455Zm0,0" transform="translate(0 -248.701)"/><path d="M294.727,5.455a2.728,2.728,0,0,0,2.727-2.727A2.727,2.727,0,1,0,292.8,4.656,2.749,2.749,0,0,0,294.727,5.455Zm0,0" transform="translate(-212.362 0)"/><path class="d" d="M220.867,85.987a22.127,22.127,0,1,0,22.127-22.127A22.153,22.153,0,0,0,220.867,85.987Zm38.8,0a16.673,16.673,0,1,1-16.673-16.673A16.692,16.692,0,0,1,259.667,85.987Zm0,0" transform="translate(-160.63 -46.443)"/><path class="d" d="M274.007,123.937a2.727,2.727,0,1,0-3.857,3.857l4.814,4.814a2.726,2.726,0,0,0,3.857,0l8.448-8.448a2.727,2.727,0,0,0-3.858-3.857l-6.519,6.519Zm0,0" transform="translate(-195.891 -86.912)"/></g></svg>