<svg xmlns="http://www.w3.org/2000/svg" width="35" height="35" viewBox="0 0 35 35"><defs><style>.a{fill:#039be5;stroke:#fff;}.b{fill:#fff;}</style></defs><g transform="translate(0.5 0.5)"><circle class="a" cx="17" cy="17" r="17" transform="translate(0 0)"/><path class="b" d="M5.722,13.455,21.686,7.3c.741-.268,1.388.181,1.148,1.3h0L20.117,21.405c-.2.908-.741,1.129-1.5.7l-4.139-3.051-2,1.923a1.044,1.044,0,0,1-.835.407l.294-4.213,7.672-6.931c.334-.294-.075-.459-.515-.167L9.621,16.045,5.534,14.77c-.887-.281-.907-.887.188-1.315Z" transform="translate(2.297 3.186)"/></g></svg>