<svg xmlns="http://www.w3.org/2000/svg" width="139" height="143" viewBox="0 0 139 143"><defs><style>.a{fill:#fcaa24;}.b{fill:#f99d07;}</style></defs><g transform="translate(-78 -714)"><rect class="a" width="139" height="143" transform="translate(78 714)"/><path class="b" d="M0,102.294a10.585,10.585,0,0,0,10.582,10.582h77.6a10.585,10.585,0,0,0,10.582-10.582V42.329H0ZM70.548,59.084a2.653,2.653,0,0,1,2.646-2.646h8.818a2.653,2.653,0,0,1,2.646,2.646V67.9a2.653,2.653,0,0,1-2.646,2.646H73.193A2.653,2.653,0,0,1,70.548,67.9Zm0,28.219a2.653,2.653,0,0,1,2.646-2.646h8.818A2.653,2.653,0,0,1,84.657,87.3v8.818a2.653,2.653,0,0,1-2.646,2.646H73.193a2.653,2.653,0,0,1-2.646-2.646ZM42.329,59.084a2.653,2.653,0,0,1,2.646-2.646h8.818a2.653,2.653,0,0,1,2.646,2.646V67.9a2.653,2.653,0,0,1-2.646,2.646H44.974A2.653,2.653,0,0,1,42.329,67.9Zm0,28.219a2.653,2.653,0,0,1,2.646-2.646h8.818A2.653,2.653,0,0,1,56.438,87.3v8.818a2.653,2.653,0,0,1-2.646,2.646H44.974a2.653,2.653,0,0,1-2.646-2.646ZM14.11,59.084a2.653,2.653,0,0,1,2.646-2.646h8.818a2.653,2.653,0,0,1,2.646,2.646V67.9a2.653,2.653,0,0,1-2.646,2.646H16.755A2.653,2.653,0,0,1,14.11,67.9Zm0,28.219a2.653,2.653,0,0,1,2.646-2.646h8.818A2.653,2.653,0,0,1,28.219,87.3v8.818a2.653,2.653,0,0,1-2.646,2.646H16.755a2.653,2.653,0,0,1-2.646-2.646ZM88.185,14.11H77.6V3.527A3.538,3.538,0,0,0,74.075,0H67.02a3.538,3.538,0,0,0-3.527,3.527V14.11H35.274V3.527A3.538,3.538,0,0,0,31.747,0H24.692a3.538,3.538,0,0,0-3.527,3.527V14.11H10.582A10.585,10.585,0,0,0,0,24.692V35.274H98.767V24.692A10.585,10.585,0,0,0,88.185,14.11Z" transform="translate(96 725)"/></g></svg>