<svg xmlns="http://www.w3.org/2000/svg" xmlns:xlink="http://www.w3.org/1999/xlink" width="32" height="32" viewBox="0 0 32 32"><defs><style>.a{fill:url(#a);}.b{fill:#fff;}</style><radialGradient id="a" cx="0.243" cy="0.821" r="0.888" gradientUnits="objectBoundingBox"><stop offset="0" stop-color="#fae100"/><stop offset="0.054" stop-color="#fadc04"/><stop offset="0.117" stop-color="#fbce0e"/><stop offset="0.183" stop-color="#fcb720"/><stop offset="0.251" stop-color="#fe9838"/><stop offset="0.305" stop-color="#ff7950"/><stop offset="0.492" stop-color="#ff1c74"/><stop offset="1" stop-color="#6c1cd1"/></radialGradient></defs><g transform="translate(0 -10)"><circle class="a" cx="16" cy="16" r="16" transform="translate(0 10)"/><path class="b" d="M7.133,5.714a3.659,3.659,0,1,0,3.659,3.659A3.653,3.653,0,0,0,7.133,5.714Zm0,6.038A2.379,2.379,0,1,1,9.512,9.373,2.383,2.383,0,0,1,7.133,11.752ZM11.8,5.565a.853.853,0,1,1-.853-.853A.851.851,0,0,1,11.8,5.565Zm2.423.866a4.223,4.223,0,0,0-1.153-2.99,4.251,4.251,0,0,0-2.99-1.153c-1.178-.067-4.71-.067-5.888,0A4.245,4.245,0,0,0,1.2,3.437,4.237,4.237,0,0,0,.045,6.428c-.067,1.178-.067,4.71,0,5.888A4.223,4.223,0,0,0,1.2,15.306a4.257,4.257,0,0,0,2.99,1.153c1.178.067,4.71.067,5.888,0a4.223,4.223,0,0,0,2.99-1.153,4.251,4.251,0,0,0,1.153-2.99c.067-1.178.067-4.707,0-5.885ZM12.7,13.58a2.408,2.408,0,0,1-1.357,1.357,15.728,15.728,0,0,1-4.207.287,15.85,15.85,0,0,1-4.207-.287A2.408,2.408,0,0,1,1.57,13.58a15.728,15.728,0,0,1-.287-4.207A15.85,15.85,0,0,1,1.57,5.167,2.408,2.408,0,0,1,2.927,3.81a15.728,15.728,0,0,1,4.207-.287,15.85,15.85,0,0,1,4.207.287A2.408,2.408,0,0,1,12.7,5.167a15.728,15.728,0,0,1,.287,4.207A15.719,15.719,0,0,1,12.7,13.58Z" transform="translate(9.005 17.762)"/></g></svg>