<svg xmlns="http://www.w3.org/2000/svg" width="35" height="35" viewBox="0 0 35 35"><defs><style>.a{fill:#f90e0e;stroke:#fff;}.b{fill:#fff;}</style></defs><g transform="translate(0 0)"><circle class="a" cx="17" cy="17" r="17" transform="translate(0.5 0.5)"/><path class="b" d="M17.453,7.41a2.668,2.668,0,0,0-2.539-2.787c-1.9-.089-3.84-.124-5.82-.124H8.476c-1.977,0-3.919.034-5.82.124A2.673,2.673,0,0,0,.12,7.417C.034,8.639,0,9.86,0,11.082s.034,2.443.117,3.668a2.677,2.677,0,0,0,2.536,2.8c2,.093,4.046.134,6.129.13s4.128-.034,6.129-.13a2.677,2.677,0,0,0,2.539-2.8c.082-1.225.12-2.447.117-3.672S17.536,8.635,17.453,7.41ZM7.1,14.449V7.705l4.976,3.37Z" transform="translate(9 6.5)"/></g></svg>